<?xml version="1.0" encoding="iso-8859-1"?>
<!-- Generator: Adobe Illustrator 19.0.0, SVG Export Plug-In . SVG Version: 6.00 Build 0)  -->
<svg version="1.1" id="Capa_1" xmlns="http://www.w3.org/2000/svg" xmlns:xlink="http://www.w3.org/1999/xlink" x="0px" y="0px"
	 viewBox="0 0 508 508" style="enable-background:new 0 0 508 508;" xml:space="preserve">
<g>
	<g>
		<path d="M221.2,41H57.4v163.9h163.9V41H221.2z M73.7,57.4h131.1v127.655c-1.473-28.282-20.959-51.862-47.2-59.456
			c8.8-5.9,14.5-15.9,14.5-27.2c0-18.1-14.7-32.8-32.8-32.8c-18.1,0-32.8,14.7-32.8,32.8c0,11.3,5.8,21.3,14.5,27.2
			c-27.3,7.9-47.3,33.1-47.3,62.9V57.4z M155.7,98.3c0,9.1-7.4,16.4-16.4,16.4s-16.4-7.3-16.4-16.4s7.3-16.4,16.4-16.4
			C148.3,81.9,155.7,89.2,155.7,98.3z M90.1,188.5c0-27.1,22.1-49.2,49.2-49.2c27.1,0,49.2,22.1,49.2,49.2H90.1z"/>
	</g>
</g>
<g>
	<g>
		<rect x="57.4" y="262.2" width="229.4" height="16.4"/>
	</g>
</g>
<g>
	<g>
		<rect x="57.4" y="426.1" width="16.4" height="16.4"/>
	</g>
</g>
<g>
	<g>
		<rect x="90.1" y="426.1" width="16.4" height="16.4"/>
	</g>
</g>
<g>
	<g>
		<rect x="122.9" y="426.1" width="16.4" height="16.4"/>
	</g>
</g>
<g>
	<g>
		<path d="M493.6,144.4c-19.2-19.2-50.4-19.2-69.5,0l-30.8,30.8v-47.5L265.6,0H0v508h393.3V314.2l100.3-100.3
			C512.8,194.7,512.8,163.5,493.6,144.4z M270.4,28l94.9,94.9h-94.9V28z M376.9,491.6H16.4V16.4H254v122.9h122.9v52.3L224.3,344.1
			h-167v16.4h150.6l-7,7l-34.8,104.3L270.5,437l106.4-106.4V491.6z M211.7,387.1l39.2,39.2l-58.8,19.6L211.7,387.1z M266.1,418.3
			l-46.4-46.4l192.8-192.8l17.4,17.4L372,254.4l11.5,11.6l57.9-57.9l17.4,17.4L266.1,418.3z M482,202.3l-11.6,11.6L424,167.5
			l11.6-11.6c12.4-12.4,34-12.4,46.4,0c6.2,6.2,9.6,14.4,9.6,23.2S488.2,196.1,482,202.3z"/>
	</g>
</g>
<g>
</g>
<g>
</g>
<g>
</g>
<g>
</g>
<g>
</g>
<g>
</g>
<g>
</g>
<g>
</g>
<g>
</g>
<g>
</g>
<g>
</g>
<g>
</g>
<g>
</g>
<g>
</g>
<g>
</g>
</svg>
